<svg id="visual" viewBox="0 0 960 540" width="960" height="540" xmlns="http://www.w3.org/2000/svg" xmlns:xlink="http://www.w3.org/1999/xlink" version="1.1"><rect x="0" y="0" width="960" height="540" fill="#00d4ff"></rect><path d="M0 390L120 355L240 371L360 377L480 350L600 361L720 384L840 363L960 393L960 541L840 541L720 541L600 541L480 541L360 541L240 541L120 541L0 541Z" fill="#0066ff"></path><path d="M0 392L120 416L240 394L360 416L480 392L600 395L720 429L840 418L960 403L960 541L840 541L720 541L600 541L480 541L360 541L240 541L120 541L0 541Z" fill="#005dd9"></path><path d="M0 436L120 433L240 421L360 422L480 429L600 425L720 426L840 437L960 420L960 541L840 541L720 541L600 541L480 541L360 541L240 541L120 541L0 541Z" fill="#0053b3"></path><path d="M0 466L120 463L240 475L360 459L480 466L600 480L720 465L840 463L960 470L960 541L840 541L720 541L600 541L480 541L360 541L240 541L120 541L0 541Z" fill="#00478d"></path><path d="M0 514L120 493L240 489L360 508L480 503L600 498L720 504L840 497L960 514L960 541L840 541L720 541L600 541L480 541L360 541L240 541L120 541L0 541Z" fill="#033a67"></path></svg>